<svg id="Layer_1" enable-background="new 0 0 100 100" height="512" viewBox="0 0 100 100" width="512" xmlns="http://www.w3.org/2000/svg"><g><g><path d="m92.104 16.995h-84.209c-.829 0-1.5.671-1.5 1.5v63.01c0 .829.671 1.5 1.5 1.5h84.209c.829 0 1.5-.671 1.5-1.5v-63.01c.001-.829-.671-1.5-1.5-1.5z"/><path d="m9.395 19.995h81.209v60.01h-81.209z" fill="#fff"/></g><g><path d="m50 69.355c10.672 0 19.354-8.683 19.354-19.354 0-10.672-8.683-19.355-19.354-19.355-10.672 0-19.355 8.683-19.355 19.355 0 10.671 8.683 19.354 19.355 19.354z"/><path d="m50 33.645c9.018 0 16.354 7.337 16.354 16.355s-7.336 16.355-16.354 16.355-16.355-7.337-16.355-16.355 7.337-16.355 16.355-16.355z" fill="#e90000"/></g></g></svg>