<svg enable-background="new 0 0 32 32" height="512" viewBox="0 0 32 32" width="512" xmlns="http://www.w3.org/2000/svg"><g id="Portugal"><path d="m20.354 1.938h-8.708c-5.354 0-9.709 4.355-9.709 9.708v8.709c0 5.353 4.355 9.708 9.709 9.708h8.708c5.353 0 9.708-4.355 9.708-9.708v-8.709c.001-5.353-4.355-9.708-9.708-9.708z" fill="#ea0020"/><path d="m11.64 1.94v28.12c-5.36-.01-9.7-4.35-9.7-9.71v-8.7c0-5.36 4.34-9.7 9.7-9.71z" fill="#2a670b"/><path d="m11.643 9.251c-3.721 0-6.748 3.028-6.748 6.749s3.027 6.749 6.748 6.749 6.748-3.028 6.748-6.749-3.028-6.749-6.748-6.749z" fill="#fad21d"/><path d="m13.887 12.492h-4.489c-.521 0-.942.422-.942.942v3.472s0 2.946 3.223 2.939c0 0 2.946.139 3.15-2.944v-3.467c0-.52-.422-.942-.942-.942z" fill="#efefef"/><g><path d="m11.679 19.846c-3.223.007-3.223-2.939-3.223-2.939v-3.472c0-.521.422-.942.942-.942h4.488c.521 0 .942.422.942.942v3.467c-.203 3.082-3.149 2.944-3.149 2.944zm1.269-3.021-.002-2.449h-2.606v2.468s.055 1.193 1.303 1.12c0 0 1.16.108 1.305-1.139z" fill="#ea0020"/></g><path d="m30.06 11.65v8.699c0 5.36-4.35 9.71-9.71 9.71h-8.7c-1.141 0-2.23-.199-3.25-.56l8.77-.75c9.061-1.25 9.41-7.37 9.41-7.37l-.04-10.63s-.19-6.25-7.72-8.81h1.529c5.361.001 9.711 4.351 9.711 9.711z" fill="#160204" opacity=".13"/><path d="m4.17 11.08-.05 10.7s.26 4.359 2.189 6.68c-2.63-1.74-4.369-4.72-4.369-8.11v-8.7c0-5.36 4.35-9.71 9.71-9.71h3.369c-2.639.53-9.769 2.58-10.849 9.14z" fill="#fff" opacity=".2"/><path d="m17.43 19.45c.61-9.62-6.42-9.561-9.51-9.07 1.07-.72 2.35-1.13 3.72-1.13 3.721 0 6.75 3.03 6.75 6.75 0 1.26-.35 2.44-.96 3.45z" fill="#160204" opacity=".1"/></g></svg>