<svg width="166" height="68" viewBox="0 0 166 68" fill="none" xmlns="http://www.w3.org/2000/svg">
<path d="M12.5759 28.5564C9.9176 28.5564 7.66113 27.9691 5.8065 26.7945C3.95187 25.6199 2.53617 23.9878 1.55939 21.8983C0.594984 19.8087 0.11278 17.3915 0.11278 14.6466C0.11278 11.9018 0.594984 9.48458 1.55939 7.39503C2.53617 5.30548 3.95187 3.6734 5.8065 2.4988C7.66113 1.3242 9.9176 0.736901 12.5759 0.736901C15.667 0.736901 18.2078 1.52203 20.1985 3.09228C22.2015 4.66254 23.5801 6.77682 24.3343 9.43513L20.9774 10.3254C20.4334 8.33471 19.4628 6.76446 18.0656 5.61458C16.6685 4.46471 14.8386 3.88978 12.5759 3.88978C10.5853 3.88978 8.92847 4.34107 7.6055 5.24366C6.28252 6.14624 5.2872 7.4074 4.61954 9.02711C3.95187 10.6345 3.61185 12.5076 3.59949 14.6466C3.58712 16.7733 3.91478 18.6465 4.58244 20.2662C5.25011 21.8735 6.25161 23.1347 7.58695 24.0496C8.92228 24.9522 10.5853 25.4035 12.5759 25.4035C14.8386 25.4035 16.6685 24.8286 18.0656 23.6787C19.4628 22.5165 20.4334 20.9462 20.9774 18.9679L24.3343 19.8582C23.5801 22.5041 22.2015 24.6184 20.1985 26.201C18.2078 27.7713 15.667 28.5564 12.5759 28.5564ZM28.4017 28V1.29329H38.9546C39.2142 1.29329 39.5233 1.30565 39.8819 1.33038C40.2405 1.34275 40.5867 1.37984 40.9205 1.44166C42.3671 1.66422 43.5788 2.15879 44.5556 2.92537C45.5447 3.69195 46.2866 4.66254 46.7811 5.83714C47.2757 6.99938 47.523 8.29144 47.523 9.71332C47.523 11.7781 46.9851 13.571 45.9095 15.0918C44.8338 16.6002 43.2573 17.5461 41.1801 17.9293L39.919 18.1334H31.703V28H28.4017ZM44.2959 28L39.0288 17.1319L42.2929 16.1304L48.0794 28H44.2959ZM31.703 14.999H38.8433C39.0782 14.999 39.3441 14.9867 39.6408 14.9619C39.9499 14.9372 40.2405 14.8939 40.5125 14.8321C41.3656 14.6343 42.058 14.2757 42.5897 13.7564C43.1337 13.2248 43.5293 12.6065 43.7766 11.9018C44.0239 11.1847 44.1476 10.4552 44.1476 9.71332C44.1476 8.97147 44.0239 8.24816 43.7766 7.5434C43.5293 6.82628 43.1337 6.20188 42.5897 5.67022C42.058 5.13856 41.3656 4.78 40.5125 4.59454C40.2405 4.52035 39.9499 4.47708 39.6408 4.46471C39.3441 4.43998 39.0782 4.42762 38.8433 4.42762H31.703V14.999ZM58.0918 28V16.8908L49.0968 1.29329H52.9359L59.761 13.1073L66.5675 1.29329H70.4065L61.4301 16.8908V28H58.0918ZM72.9926 28V1.29329H83.5455C83.8051 1.29329 84.1142 1.30565 84.4728 1.33038C84.8313 1.34275 85.1775 1.37984 85.5114 1.44166C86.958 1.66422 88.1697 2.15879 89.1464 2.92537C90.1356 3.69195 90.8774 4.66254 91.372 5.83714C91.8666 6.99938 92.1139 8.29144 92.1139 9.71332C92.1139 11.1228 91.8604 12.4149 91.3535 13.5895C90.8589 14.7517 90.117 15.7223 89.1279 16.5013C88.1511 17.2679 86.9456 17.7624 85.5114 17.985C85.1775 18.0344 84.8313 18.0715 84.4728 18.0963C84.1142 18.121 83.8051 18.1334 83.5455 18.1334H76.2938V28H72.9926ZM76.2938 14.999H83.4342C83.6691 14.999 83.9349 14.9867 84.2317 14.9619C84.5408 14.9372 84.8313 14.8939 85.1033 14.8321C85.9565 14.6343 86.6489 14.2757 87.1805 13.7564C87.7246 13.2248 88.1202 12.6065 88.3675 11.9018C88.6148 11.1847 88.7384 10.4552 88.7384 9.71332C88.7384 8.97147 88.6148 8.24816 88.3675 7.5434C88.1202 6.82628 87.7246 6.20188 87.1805 5.67022C86.6489 5.13856 85.9565 4.78 85.1033 4.59454C84.8313 4.52035 84.5408 4.47708 84.2317 4.46471C83.9349 4.43998 83.6691 4.42762 83.4342 4.42762H76.2938V14.999ZM102.694 28V4.42762H93.5877V1.29329H115.101V4.42762H105.995V28H102.694ZM129.034 28.5564C126.375 28.5564 124.119 27.9691 122.264 26.7945C120.41 25.6199 118.994 23.9878 118.017 21.8983C117.053 19.8087 116.571 17.3915 116.571 14.6466C116.571 11.9018 117.053 9.48458 118.017 7.39503C118.994 5.30548 120.41 3.6734 122.264 2.4988C124.119 1.3242 126.375 0.736901 129.034 0.736901C131.704 0.736901 133.967 1.3242 135.822 2.4988C137.676 3.6734 139.086 5.30548 140.05 7.39503C141.015 9.48458 141.497 11.9018 141.497 14.6466C141.497 17.3915 141.015 19.8087 140.05 21.8983C139.086 23.9878 137.676 25.6199 135.822 26.7945C133.967 27.9691 131.704 28.5564 129.034 28.5564ZM129.034 25.4035C131.024 25.4159 132.681 24.9708 134.004 24.0682C135.34 23.1532 136.335 21.8859 136.99 20.2662C137.658 18.6465 137.992 16.7733 137.992 14.6466C137.992 12.5076 137.658 10.6345 136.99 9.02711C136.335 7.41976 135.34 6.16479 134.004 5.2622C132.681 4.35962 131.024 3.90214 129.034 3.88978C127.043 3.87741 125.386 4.32252 124.063 5.22511C122.753 6.1277 121.764 7.38885 121.096 9.00856C120.428 10.6283 120.088 12.5076 120.076 14.6466C120.064 16.7733 120.391 18.6403 121.059 20.2476C121.727 21.855 122.722 23.1161 124.045 24.0311C125.38 24.9337 127.043 25.3912 129.034 25.4035Z" fill="white"/>
<path d="M1.59649 67V40.2933H17.9173V45.3379H6.64109V51.1243H15.6917V56.1689H6.64109V67H1.59649ZM32.1339 67.5564C29.9825 67.5564 28.0908 67.1236 26.4587 66.2581C24.8266 65.3803 23.5531 64.15 22.6382 62.5674C21.7232 60.9848 21.2657 59.124 21.2657 56.985V40.3304L26.3845 40.2933V56.9479C26.3845 57.8258 26.5329 58.6232 26.8296 59.3404C27.1264 60.0575 27.5344 60.6757 28.0537 61.195C28.5854 61.7143 29.1974 62.1161 29.8898 62.4005C30.5945 62.6725 31.3426 62.8085 32.1339 62.8085C32.9499 62.8085 33.7041 62.6663 34.3965 62.382C35.1013 62.0976 35.7133 61.6958 36.2326 61.1765C36.7519 60.6572 37.1538 60.0389 37.4381 59.3218C37.7349 58.6047 37.8832 57.8134 37.8832 56.9479V40.2933H43.002V56.985C43.002 59.124 42.5446 60.9848 41.6296 62.5674C40.7146 64.15 39.4411 65.3803 37.8091 66.2581C36.177 67.1236 34.2853 67.5564 32.1339 67.5564ZM54.3741 67V45.0041H45.9541V40.2933H67.8387V45.0041H59.4187V67H54.3741ZM81.6873 67.5564C79.536 67.5564 77.6442 67.1236 76.0122 66.2581C74.3801 65.3803 73.1066 64.15 72.1916 62.5674C71.2767 60.9848 70.8192 59.124 70.8192 56.985V40.3304L75.938 40.2933V56.9479C75.938 57.8258 76.0864 58.6232 76.3831 59.3404C76.6798 60.0575 77.0879 60.6757 77.6072 61.195C78.1388 61.7143 78.7508 62.1161 79.4432 62.4005C80.148 62.6725 80.896 62.8085 81.6873 62.8085C82.5034 62.8085 83.2576 62.6663 83.95 62.382C84.6548 62.0976 85.2668 61.6958 85.7861 61.1765C86.3054 60.6572 86.7072 60.0389 86.9916 59.3218C87.2883 58.6047 87.4367 57.8134 87.4367 56.9479V40.2933H92.5555V56.985C92.5555 59.124 92.098 60.9848 91.1831 62.5674C90.2681 64.15 88.9946 65.3803 87.3625 66.2581C85.7304 67.1236 83.8387 67.5564 81.6873 67.5564ZM97.7331 67V40.2933H109.009C109.269 40.2933 109.615 40.3057 110.048 40.3304C110.493 40.3427 110.889 40.3798 111.235 40.4417C112.83 40.6889 114.134 41.2144 115.148 42.0181C116.174 42.8218 116.929 43.8356 117.411 45.0597C117.893 46.2714 118.134 47.6253 118.134 49.1213C118.134 51.3593 117.578 53.2757 116.465 54.8707C115.352 56.4533 113.609 57.4301 111.235 57.801L109.009 57.9494H102.778V67H97.7331ZM112.793 67L107.526 56.1319L112.719 55.1304L118.505 67H112.793ZM102.778 53.2386H108.787C109.046 53.2386 109.331 53.2263 109.64 53.2015C109.949 53.1768 110.233 53.1273 110.493 53.0532C111.173 52.8677 111.698 52.5586 112.069 52.1258C112.44 51.6807 112.694 51.1923 112.83 50.6607C112.978 50.1167 113.052 49.6035 113.052 49.1213C113.052 48.6391 112.978 48.1322 112.83 47.6005C112.694 47.0565 112.44 46.5681 112.069 46.1354C111.698 45.6903 111.173 45.375 110.493 45.1895C110.233 45.1153 109.949 45.0659 109.64 45.0412C109.331 45.0164 109.046 45.0041 108.787 45.0041H102.778V53.2386ZM122.582 67V40.2933H140.016V45.0041H127.627V50.7163H137.79V55.4271H127.627V62.2892H140.016V67H122.582ZM154.55 67.5564C152.572 67.5564 150.785 67.2102 149.19 66.5178C147.608 65.813 146.303 64.8115 145.277 63.5133C144.263 62.2027 143.62 60.6448 143.348 58.8396L148.616 58.0607C148.986 59.5938 149.753 60.7746 150.915 61.603C152.078 62.4314 153.4 62.8456 154.884 62.8456C155.713 62.8456 156.516 62.7158 157.295 62.4562C158.074 62.1965 158.711 61.8132 159.205 61.3063C159.712 60.7993 159.966 60.175 159.966 59.4331C159.966 59.1611 159.923 58.9014 159.836 58.6542C159.762 58.3945 159.632 58.1534 159.447 57.9308C159.261 57.7083 158.995 57.4981 158.649 57.3003C158.315 57.1024 157.889 56.9232 157.369 56.7624L150.433 54.7223C149.914 54.574 149.308 54.3638 148.616 54.0918C147.936 53.8197 147.274 53.4303 146.631 52.9233C145.988 52.4164 145.45 51.7487 145.018 50.9203C144.597 50.0796 144.387 49.0224 144.387 47.7489C144.387 45.9561 144.838 44.4662 145.741 43.2792C146.643 42.0923 147.849 41.2082 149.357 40.6271C150.866 40.046 152.535 39.7616 154.365 39.774C156.207 39.7987 157.852 40.114 159.298 40.7199C160.745 41.3257 161.957 42.2097 162.933 43.372C163.91 44.5219 164.615 45.9314 165.048 47.6005L159.595 48.5279C159.397 47.6624 159.032 46.9329 158.501 46.3394C157.969 45.7459 157.332 45.2946 156.59 44.9855C155.861 44.6764 155.094 44.5095 154.291 44.4848C153.499 44.46 152.751 44.5713 152.047 44.8186C151.354 45.0535 150.785 45.3997 150.34 45.8572C149.908 46.3147 149.691 46.8587 149.691 47.4893C149.691 48.0704 149.871 48.5464 150.229 48.9173C150.588 49.2759 151.039 49.5665 151.583 49.789C152.127 50.0116 152.683 50.197 153.252 50.3454L157.889 51.6065C158.581 51.792 159.348 52.0393 160.188 52.3484C161.029 52.6451 161.833 53.0655 162.599 53.6096C163.378 54.1412 164.015 54.846 164.51 55.7238C165.017 56.6017 165.27 57.7145 165.27 59.0622C165.27 60.4964 164.967 61.7514 164.361 62.8271C163.768 63.8904 162.964 64.7744 161.95 65.4792C160.936 66.1716 159.787 66.6909 158.501 67.0371C157.227 67.3833 155.91 67.5564 154.55 67.5564Z" fill="#66D535"/>
</svg>
