<svg width="32" height="32" viewBox="0 0 32 32" fill="none" xmlns="http://www.w3.org/2000/svg">
<path d="M31.5211 19.8706C29.3838 28.442 20.7015 33.6584 12.128 31.521C3.55814 29.384 -1.65893 20.7021 0.479272 12.1312C2.61549 3.55878 11.2979 -1.65818 19.8689 0.478786C28.4417 2.61579 33.6583 11.2987 31.5211 19.8706Z" fill="#E32322"/>
<path d="M22.7401 14.5139L16.6152 20.7361C16.4422 20.9121 16.2371 21 16 21C15.7629 21 15.5579 20.9121 15.3847 20.7361L9.25973 14.5139C9.08653 14.3379 9 14.1296 9 13.8889C9 13.6482 9.08653 13.4397 9.25973 13.2639C9.43313 13.088 9.63813 13 9.87507 13L22.1249 13C22.3619 13 22.567 13.088 22.7401 13.2639C22.9131 13.4397 23 13.6481 23 13.8889C23 14.1296 22.9131 14.3379 22.7401 14.5139Z" fill="white"/>
</svg>
