<svg        width="113"        height="100"        viewBox="0 0 113 100"        fill="none"        xmlns="http://www.w3.org/2000/svg">    <path            d="M86.5692 76.6677H85.3071V56.3733H79.6301V38.7271H85.3071V18.4316H86.5692V38.7271H92.2462V56.3733H86.5692V76.6677Z"            fill="#E32322"    />    <path            d="M66.705 60.8892H65.4439V45.4423H59.7659V32.0099H65.4439V16.563H66.705V32.0099H72.383V45.4423H66.705V60.8892Z"            fill="#E32322"    />    <path            d="M46.8429 59.5134H45.5808V38.774H39.9038V20.739H45.5808V-0.000427246H46.8429V20.739H52.5199V38.774H46.8429V59.5134Z"            fill="#E32322"    />    <path            d="M26.8347 83.7666H25.864V65.0734H20.0408V25.8111H25.864V7.11992H26.8347V25.8111H32.6579V65.0734H26.8347V83.7666Z"            fill="#E32322"    />    <path            d="M7.11685 83.6064H5.85473V59.6268H0.177734V38.7741H5.85473V14.7945H7.11685V38.7741H12.7938V59.6268H7.11685V83.6064Z"            fill="#E32322"    />    <path            d="M112.11 75.2176H106.432V99.1982H105.171V75.2176H99.4932V54.3659H105.171V30.3852H106.432V54.3659H112.11V75.2176Z"            fill="#E32322"    /></svg>