<svg width="1920" height="298" viewBox="0 0 1920 298" fill="none" xmlns="http://www.w3.org/2000/svg">
<path d="M-13.0996 298V-26H198.4V31.15H48.1004V100.45H171.4V157.6H48.1004V240.85H198.4V298H-13.0996Z" fill="url(#paint0_linear_442_2)" fill-opacity="0.06"/>
<path d="M265.83 298V-26H395.43C418.53 -26 437.205 -21.35 451.455 -12.05C465.705 -2.89999 476.13 8.65 482.73 22.6C489.33 36.55 492.63 50.65 492.63 64.9C492.63 83.05 488.505 98.125 480.255 110.125C472.155 122.125 460.98 130.15 446.73 134.2V122.95C466.98 127.15 482.13 136.525 492.18 151.075C502.38 165.625 507.48 181.9 507.48 199.9C507.48 219.25 503.88 236.275 496.68 250.975C489.63 265.675 478.83 277.225 464.28 285.625C449.73 293.875 431.43 298 409.38 298H265.83ZM327.93 240.4H403.08C411.33 240.4 418.68 238.675 425.13 235.225C431.58 231.625 436.605 226.675 440.205 220.375C443.955 213.925 445.83 206.35 445.83 197.65C445.83 190 444.255 183.175 441.105 177.175C437.955 171.175 433.155 166.45 426.705 163C420.405 159.4 412.53 157.6 403.08 157.6H327.93V240.4ZM327.93 100.45H394.53C401.43 100.45 407.58 99.25 412.98 96.85C418.38 94.45 422.655 90.775 425.805 85.825C428.955 80.725 430.53 74.2 430.53 66.25C430.53 56.35 427.455 48.025 421.305 41.275C415.155 34.525 406.23 31.15 394.53 31.15H327.93V100.45Z" fill="url(#paint1_linear_442_2)" fill-opacity="0.06"/>
<path d="M565.854 298V-26H777.354V31.15H627.054V100.45H750.354V157.6H627.054V240.85H777.354V298H565.854Z" fill="url(#paint2_linear_442_2)" fill-opacity="0.06"/>
<path d="M919.933 298V31.15H817.783V-26H1083.28V31.15H981.133V298H919.933Z" fill="url(#paint3_linear_442_2)" fill-opacity="0.06"/>
<path d="M1137.44 298V-26H1198.64V240.85H1338.14V298H1137.44Z" fill="url(#paint4_linear_442_2)" fill-opacity="0.06"/>
<path d="M1367.4 298L1466.4 -26H1557.75L1656.75 298H1593.75L1505.55 12.25H1517.25L1430.4 298H1367.4ZM1426.8 230.5V173.35H1597.8V230.5H1426.8Z" fill="url(#paint5_linear_442_2)" fill-opacity="0.06"/>
<path d="M1710.58 298V-26H1840.18C1863.28 -26 1881.95 -21.35 1896.2 -12.05C1910.45 -2.89999 1920.88 8.65 1927.48 22.6C1934.08 36.55 1937.38 50.65 1937.38 64.9C1937.38 83.05 1933.25 98.125 1925 110.125C1916.9 122.125 1905.73 130.15 1891.48 134.2V122.95C1911.73 127.15 1926.88 136.525 1936.93 151.075C1947.13 165.625 1952.23 181.9 1952.23 199.9C1952.23 219.25 1948.63 236.275 1941.43 250.975C1934.38 265.675 1923.58 277.225 1909.03 285.625C1894.48 293.875 1876.18 298 1854.13 298H1710.58ZM1772.68 240.4H1847.83C1856.08 240.4 1863.43 238.675 1869.88 235.225C1876.33 231.625 1881.35 226.675 1884.95 220.375C1888.7 213.925 1890.58 206.35 1890.58 197.65C1890.58 190 1889 183.175 1885.85 177.175C1882.7 171.175 1877.9 166.45 1871.45 163C1865.15 159.4 1857.28 157.6 1847.83 157.6H1772.68V240.4ZM1772.68 100.45H1839.28C1846.18 100.45 1852.33 99.25 1857.73 96.85C1863.13 94.45 1867.4 90.775 1870.55 85.825C1873.7 80.725 1875.28 74.2 1875.28 66.25C1875.28 56.35 1872.2 48.025 1866.05 41.275C1859.9 34.525 1850.98 31.15 1839.28 31.15H1772.68V100.45Z" fill="url(#paint6_linear_442_2)" fill-opacity="0.06"/>
<defs>
<linearGradient id="paint0_linear_442_2" x1="960.5" y1="-30.1315" x2="960.5" y2="298.838" gradientUnits="userSpaceOnUse">
<stop stop-color="white"/>
<stop offset="1" stop-color="#0E121D" stop-opacity="0"/>
</linearGradient>
<linearGradient id="paint1_linear_442_2" x1="960.5" y1="-30.1315" x2="960.5" y2="298.838" gradientUnits="userSpaceOnUse">
<stop stop-color="white"/>
<stop offset="1" stop-color="#0E121D" stop-opacity="0"/>
</linearGradient>
<linearGradient id="paint2_linear_442_2" x1="960.5" y1="-30.1315" x2="960.5" y2="298.838" gradientUnits="userSpaceOnUse">
<stop stop-color="white"/>
<stop offset="1" stop-color="#0E121D" stop-opacity="0"/>
</linearGradient>
<linearGradient id="paint3_linear_442_2" x1="960.5" y1="-30.1315" x2="960.5" y2="298.838" gradientUnits="userSpaceOnUse">
<stop stop-color="white"/>
<stop offset="1" stop-color="#0E121D" stop-opacity="0"/>
</linearGradient>
<linearGradient id="paint4_linear_442_2" x1="960.5" y1="-30.1315" x2="960.5" y2="298.838" gradientUnits="userSpaceOnUse">
<stop stop-color="white"/>
<stop offset="1" stop-color="#0E121D" stop-opacity="0"/>
</linearGradient>
<linearGradient id="paint5_linear_442_2" x1="960.5" y1="-30.1315" x2="960.5" y2="298.838" gradientUnits="userSpaceOnUse">
<stop stop-color="white"/>
<stop offset="1" stop-color="#0E121D" stop-opacity="0"/>
</linearGradient>
<linearGradient id="paint6_linear_442_2" x1="960.5" y1="-30.1315" x2="960.5" y2="298.838" gradientUnits="userSpaceOnUse">
<stop stop-color="white"/>
<stop offset="1" stop-color="#0E121D" stop-opacity="0"/>
</linearGradient>
</defs>
</svg>
