<svg width="111" height="33" viewBox="0 0 111 33" fill="none" xmlns="http://www.w3.org/2000/svg">
<g clip-path="url(#clip0_1_2066)">
<path d="M41.5265 17.4627C41.803 19.2886 42.6712 20.5764 44.3345 20.4988C45.4605 20.4601 46.31 19.8654 47.012 18.9428L47.1782 19.0009L46.6052 21.3454C45.9218 21.8835 44.5365 22.1145 43.5394 22.1145C40.6956 22.1145 38.4966 20.5778 38.4966 17.2332C38.4966 13.8886 40.3991 12.1403 43.3918 12.1403C45.7012 12.1403 47.6954 13.4847 47.4189 17.424L41.5265 17.4627ZM41.4535 16.0796H44.7413C44.7786 14.8112 44.3903 13.504 43.005 13.6591C41.9334 13.7738 41.4907 14.8127 41.4535 16.0796Z" fill="white"/>
<path d="M63.8146 17.4627C64.0911 19.2886 64.9593 20.5764 66.6226 20.4988C67.7486 20.4601 68.5981 19.8654 69.3001 18.9428L69.4663 19.0009L68.8932 21.3454C68.2099 21.8835 66.8245 22.1145 65.8274 22.1145C62.9837 22.1145 60.7847 20.5778 60.7847 17.2332C60.7847 13.8886 62.6872 12.1403 65.6799 12.1403C67.9893 12.1403 69.9835 13.4847 69.707 17.424L63.8146 17.4627ZM63.7401 16.0796H67.028C67.0652 14.8112 66.677 13.504 65.2917 13.6591C64.2201 13.7738 63.7774 14.8127 63.7401 16.0796Z" fill="white"/>
<path d="M59.294 17.8085C59.294 20.7671 57.1508 22.1905 53.4389 22.0161C52.9962 22.0161 51.5178 21.9207 50.4104 21.9207H48.9333V21.7284C49.0437 21.5943 49.5608 21.095 49.5608 20.0561V10.3323C49.5608 9.29489 49.0437 8.79558 48.9333 8.65994V8.46767H50.4104C51.0937 8.46767 52.4604 8.37228 53.1252 8.37228C56.0993 8.29478 57.8356 9.21738 57.8356 11.5231C57.8356 13.0598 56.986 13.9258 55.8414 14.4057C57.615 14.7128 59.2954 15.5772 59.2954 17.807L59.294 17.8085ZM52.5521 10.1027V14.0808H52.5894C53.9747 14.0808 54.9346 13.5621 54.9346 11.9673C54.9346 10.2756 53.9747 9.81506 52.5521 10.1027ZM55.8958 17.9039C55.8958 15.8664 54.6581 15.3865 53.0149 15.3865C52.8487 15.3865 52.7011 15.3865 52.5536 15.4058V20.2484C54.6781 20.6717 55.8973 19.8251 55.8973 17.9039H55.8958Z" fill="white"/>
<path d="M78.2085 19.4034L77.7099 21.4409C77.3775 21.7867 76.4349 22.1131 75.5309 22.1131C73.5539 22.1131 71.9852 21.4215 71.9852 18.5196V13.8693H70.2861V13.677L70.8406 12.3311H71.9852V10.7944L72.4651 10.5828C73.6284 10.0641 74.3118 9.58416 74.6441 9.21899H74.8289V12.3326H77.932V12.5249L77.452 13.8693H74.8289V18.4242C74.8289 19.7313 75.051 20.5183 76.2143 20.5183C77.0824 20.5183 77.803 19.7686 78.0237 19.3647L78.2085 19.4034Z" fill="white"/>
<path d="M88.8086 18.9991L88.0694 22.0546H87.9218C87.6998 21.9011 87.1282 21.9204 86.962 21.9204H79.6843V21.7282C79.7946 21.594 80.3118 21.0947 80.3118 20.0559V10.332C80.3118 9.29462 79.7946 8.79531 79.6843 8.65968V8.46741H83.932V8.65968C83.8031 8.79382 83.2859 9.29313 83.2859 10.332V19.9202H86.962C88.0522 19.9202 88.5135 19.0751 88.6052 18.9395L88.8086 18.9976V18.9991Z" fill="white"/>
<path d="M98.768 21.7287V21.921H95.8125L95.4242 20.9984V20.3649L95.0919 21.4992C94.6492 21.8643 93.9659 22.1147 93.1894 22.1147C91.8785 22.1147 89.9202 21.672 89.9202 19.3096C89.9202 16.8116 92.2653 16.1394 95.4242 16.1006V15.813C95.4242 15.0633 95.4242 13.7189 93.6321 13.7189C92.506 13.7189 91.6737 14.2957 91.231 14.6221H91.1021V12.835C91.4717 12.6621 92.6163 12.1434 94.3527 12.1434C96.5503 12.1434 98.268 12.7963 98.268 15.813V20.1175C98.268 21.1355 98.6562 21.5975 98.7665 21.7317L98.768 21.7287ZM95.4242 20.1145V17.4242C93.0046 17.4242 92.5246 18.2887 92.5246 19.2113C92.5246 20.1339 93.0977 20.5944 94.132 20.5944C94.6678 20.5944 95.1291 20.4215 95.4257 20.1145H95.4242Z" fill="white"/>
<path d="M110.126 16.9811C110.126 19.9591 108.906 22.1114 105.693 22.1114C104.584 22.1114 104.142 21.9578 103.033 21.9191H100.428V21.7268C100.557 21.5927 100.927 21.1306 100.927 20.1126V10.0042C100.927 8.98623 100.557 8.79396 100.428 8.65832V8.46605L101.739 8.29316C103.033 8.12026 103.457 7.86986 103.586 7.73572H103.771V13.1938C104.14 12.6945 104.786 12.1371 105.858 12.1371C107.889 12.1371 110.124 13.7513 110.124 16.9796L110.126 16.9811ZM106.967 16.6741C106.838 14.7141 106.024 13.3503 104.528 13.7334C104.159 13.8288 103.919 14.0986 103.771 14.4443V20.4972C104.159 20.6119 104.583 20.7088 105.156 20.6507C106.67 20.4778 107.096 18.8442 106.965 16.6726L106.967 16.6741Z" fill="white"/>
<path d="M32.6427 6.00863C31.3448 1.75332 26.7776 -0.342291 22.8838 1.52229C19.6561 3.06792 18.0143 6.94315 19.0931 10.4666C19.3696 11.3684 19.7951 12.1732 20.328 12.8633C20.7721 13.4372 20.7922 14.2495 20.371 14.8427L19.6962 15.7876C19.3438 16.2825 18.7507 16.5254 18.1676 16.4151C17.7063 16.3272 17.2293 16.3361 16.7723 16.4479C16.1978 16.585 15.5961 16.4002 15.2222 15.9248L14.3999 14.874C13.9787 14.3374 13.9515 13.5907 14.2924 12.996C15.4442 10.9913 15.195 8.32632 13.4543 6.5914C11.8484 4.99063 9.3886 4.72682 7.50758 5.87001C7.31561 5.98478 7.12937 6.11743 6.9503 6.2635C4.66958 8.12659 4.40455 11.5726 6.30419 13.7889C6.86004 14.4358 7.5391 14.9038 8.2683 15.1885C8.27116 15.1885 8.27259 15.1885 8.27259 15.1885C8.88575 15.4269 9.28402 16.0455 9.27255 16.7266L9.20092 21.0237C9.1909 21.5781 8.9144 22.0909 8.45597 22.3741C8.26257 22.4948 8.07919 22.6438 7.91301 22.8242C7.58208 23.1864 7.36432 23.632 7.26833 24.1C7.11934 24.8169 7.24828 25.5905 7.6709 26.2135C8.28262 27.1108 9.30264 27.4894 10.2525 27.3016C10.7725 27.2017 11.3011 27.4044 11.655 27.8098L12.6893 28.9947C12.9844 29.3316 13.1019 29.7862 13.0661 30.2408C13.0403 30.5672 13.1005 30.9055 13.2581 31.2156C13.2581 31.2156 13.2595 31.217 13.2624 31.2215C13.7136 32.0979 14.7709 32.4169 15.6061 31.922C16.1605 31.5941 16.4757 30.9666 16.4643 30.3332C16.4585 30.0977 16.4098 29.8607 16.3095 29.6401C16.0173 28.9843 15.3984 28.6102 14.7594 28.6117C14.3053 28.6117 13.8784 28.3836 13.5732 28.0349L12.5991 26.9185C12.2409 26.5086 12.1048 25.9378 12.2495 25.4087C12.4744 24.5859 12.3197 23.6648 11.7553 22.9583C11.5905 22.7526 11.4 22.5797 11.1965 22.4381C10.7438 22.1296 10.4659 21.6094 10.4745 21.0475L10.5476 16.7505C10.559 16.0529 11.006 15.4627 11.6392 15.2347C11.6464 15.2347 11.6564 15.2302 11.665 15.2257C12.2954 14.9962 12.9945 15.178 13.4157 15.7176L14.2151 16.7341C14.5861 17.2081 14.6792 17.8624 14.4299 18.4139C14.152 19.0324 14.0532 19.715 14.1334 20.3768C14.2394 21.2636 14.6649 22.1102 15.397 22.7243C16.7293 23.8332 18.6991 23.7393 19.9269 22.5067C20.7563 21.672 21.0916 20.5273 20.9455 19.4438C20.8967 19.0458 20.7793 18.6553 20.5988 18.2916C20.3294 17.7446 20.3524 17.0933 20.7033 16.5985L21.3939 15.6282C21.8208 15.029 22.5801 14.8248 23.2448 15.1005C24.9639 15.81 26.9524 15.8294 28.7962 14.9649C32.051 13.4372 33.7215 9.5485 32.6427 6.00713V6.00863ZM25.7175 12.6129C23.3451 12.6129 21.4211 10.6112 21.4211 8.1415C21.4211 5.67178 23.3451 3.67007 25.7175 3.67007C28.0899 3.67007 30.0153 5.67178 30.0153 8.1415C30.0153 10.6112 28.0913 12.6129 25.7175 12.6129Z" fill="url(#paint0_linear_1_2066)"/>
<path d="M27.6237 10.1234C28.6767 9.02793 28.6767 7.25185 27.6237 6.1564C26.5708 5.06095 24.8637 5.06095 23.8108 6.1564C22.7579 7.25185 22.7579 9.02793 23.8108 10.1234C24.8637 11.2188 26.5708 11.2188 27.6237 10.1234Z" fill="white"/>
<path d="M31.7209 24.2168C32.6239 22.3158 31.8748 20.0131 30.0476 19.0736C28.2204 18.134 26.0072 18.9135 25.1041 20.8144C24.2011 22.7154 24.9502 25.0181 26.7774 25.9576C28.6046 26.8971 30.8178 26.1177 31.7209 24.2168Z" fill="url(#paint1_linear_1_2066)"/>
<path d="M3.15723 21.9015C4.46351 21.9015 5.52247 20.7998 5.52247 19.4408C5.52247 18.0817 4.46351 16.98 3.15723 16.98C1.85095 16.98 0.791992 18.0817 0.791992 19.4408C0.791992 20.7998 1.85095 21.9015 3.15723 21.9015Z" fill="url(#paint2_linear_1_2066)"/>
<path d="M16.6778 1.81257C16.8608 1.02528 16.3958 0.23266 15.6391 0.0421954C14.8824 -0.148269 14.1205 0.33555 13.9374 1.12284C13.7544 1.91012 14.2194 2.70274 14.9761 2.89321C15.7328 3.08367 16.4947 2.59985 16.6778 1.81257Z" fill="url(#paint3_linear_1_2066)"/>
<path d="M20.2305 28.2957C21.009 28.2957 21.6402 27.6391 21.6402 26.8291C21.6402 26.0191 21.009 25.3624 20.2305 25.3624C19.4519 25.3624 18.8208 26.0191 18.8208 26.8291C18.8208 27.6391 19.4519 28.2957 20.2305 28.2957Z" fill="url(#paint4_linear_1_2066)"/>
</g>
<defs>
<linearGradient id="paint0_linear_1_2066" x1="6.52338" y1="25.7336" x2="27.8452" y2="0.38963" gradientUnits="userSpaceOnUse">
<stop stop-color="#00A5FF"/>
<stop offset="0.09" stop-color="#00AAE9"/>
<stop offset="0.27" stop-color="#00B9B2"/>
<stop offset="0.52" stop-color="#00D059"/>
<stop offset="0.55" stop-color="#00D350"/>
<stop offset="0.62" stop-color="#00CD65"/>
<stop offset="0.77" stop-color="#00BE9C"/>
<stop offset="0.98" stop-color="#00A7F5"/>
<stop offset="1" stop-color="#00A5FF"/>
</linearGradient>
<linearGradient id="paint1_linear_1_2066" x1="27.2306" y1="18.8503" x2="29.6871" y2="26.0954" gradientUnits="userSpaceOnUse">
<stop stop-color="#00A5FF"/>
<stop offset="0.16" stop-color="#00AAE9"/>
<stop offset="0.49" stop-color="#00B9B2"/>
<stop offset="0.95" stop-color="#00D059"/>
<stop offset="1" stop-color="#00D350"/>
</linearGradient>
<linearGradient id="paint2_linear_1_2066" x1="1.97389" y1="21.5721" x2="4.48239" y2="17.3954" gradientUnits="userSpaceOnUse">
<stop stop-color="#FF6A3C"/>
<stop offset="0.62" stop-color="#FF4C3C"/>
<stop offset="1" stop-color="#FF403C"/>
</linearGradient>
<linearGradient id="paint3_linear_1_2066" x1="14.6032" y1="2.7391" x2="16.0983" y2="0.249118" gradientUnits="userSpaceOnUse">
<stop stop-color="#FF6A3C"/>
<stop offset="0.62" stop-color="#FF4C3C"/>
<stop offset="1" stop-color="#FF403C"/>
</linearGradient>
<linearGradient id="paint4_linear_1_2066" x1="19.5256" y1="28.1004" x2="21.0207" y2="25.6104" gradientUnits="userSpaceOnUse">
<stop stop-color="#FF403C"/>
<stop offset="0.62" stop-color="#FF5D3C"/>
<stop offset="1" stop-color="#FF6A3C"/>
</linearGradient>
<clipPath id="clip0_1_2066">
<rect width="109.334" height="32.157" fill="white" transform="translate(0.791504)"/>
</clipPath>
</defs>
</svg>
