<svg width="165" height="68" viewBox="0 0 165 68" fill="none" xmlns="http://www.w3.org/2000/svg">
<path d="M0.596486 28V1.29329H16.1754V4.59454H3.89773V12.996H13.9498V16.2973H3.89773V28H0.596486ZM30.4845 28.5564C27.8262 28.5564 25.5697 27.9691 23.7151 26.7945C21.8604 25.6199 20.4447 23.9878 19.468 21.8983C18.5035 19.8087 18.0213 17.3915 18.0213 14.6466C18.0213 11.9018 18.5035 9.48458 19.468 7.39503C20.4447 5.30548 21.8604 3.6734 23.7151 2.4988C25.5697 1.3242 27.8262 0.736901 30.4845 0.736901C33.1551 0.736901 35.4178 1.3242 37.2724 2.4988C39.1271 3.6734 40.5366 5.30548 41.501 7.39503C42.4654 9.48458 42.9476 11.9018 42.9476 14.6466C42.9476 17.3915 42.4654 19.8087 41.501 21.8983C40.5366 23.9878 39.1271 25.6199 37.2724 26.7945C35.4178 27.9691 33.1551 28.5564 30.4845 28.5564ZM30.4845 25.4035C32.4751 25.4159 34.1319 24.9708 35.4549 24.0682C36.7902 23.1532 37.7855 21.8859 38.4408 20.2662C39.1085 18.6465 39.4423 16.7733 39.4423 14.6466C39.4423 12.5076 39.1085 10.6345 38.4408 9.02711C37.7855 7.41976 36.7902 6.16479 35.4549 5.2622C34.1319 4.35962 32.4751 3.90214 30.4845 3.88978C28.4938 3.87741 26.837 4.32252 25.5141 5.22511C24.2034 6.1277 23.2143 7.38885 22.5466 9.00856C21.879 10.6283 21.539 12.5076 21.5266 14.6466C21.5142 16.7733 21.8419 18.6403 22.5095 20.2476C23.1772 21.855 24.1725 23.1161 25.4955 24.0311C26.8308 24.9337 28.4938 25.3912 30.4845 25.4035ZM46.6725 28V1.29329H57.2254C57.485 1.29329 57.7941 1.30565 58.1527 1.33038C58.5113 1.34275 58.8574 1.37984 59.1913 1.44166C60.6379 1.66422 61.8496 2.15879 62.8264 2.92537C63.8155 3.69195 64.5574 4.66254 65.0519 5.83714C65.5465 6.99938 65.7938 8.29144 65.7938 9.71332C65.7938 11.7781 65.2559 13.571 64.1802 15.0918C63.1046 16.6002 61.5281 17.5461 59.4509 17.9293L58.1898 18.1334H49.9738V28H46.6725ZM62.5667 28L57.2996 17.1319L60.5637 16.1304L66.3502 28H62.5667ZM49.9738 14.999H57.1141C57.349 14.999 57.6148 14.9867 57.9116 14.9619C58.2207 14.9372 58.5113 14.8939 58.7833 14.8321C59.6364 14.6343 60.3288 14.2757 60.8605 13.7564C61.4045 13.2248 61.8001 12.6065 62.0474 11.9018C62.2947 11.1847 62.4183 10.4552 62.4183 9.71332C62.4183 8.97147 62.2947 8.24816 62.0474 7.5434C61.8001 6.82628 61.4045 6.20188 60.8605 5.67022C60.3288 5.13856 59.6364 4.78 58.7833 4.59454C58.5113 4.52035 58.2207 4.47708 57.9116 4.46471C57.6148 4.43998 57.349 4.42762 57.1141 4.42762H49.9738V14.999ZM70.435 28V1.29329H87.3122V4.42762H73.7362V12.792H85.0866V15.9263H73.7362V24.8657H87.3122V28H70.435ZM89.545 28L98.7254 14.4797L89.7861 1.29329H93.8106L100.728 11.6978L107.628 1.29329H111.671L102.731 14.4797L111.893 28H107.869L100.728 17.2802L93.5881 28H89.545Z" fill="white"/>
<path d="M0.596486 67V40.2933H16.9173V45.3379H5.64109V51.1243H14.6917V56.1689H5.64109V67H0.596486ZM31.1339 67.5564C28.9825 67.5564 27.0908 67.1236 25.4587 66.2581C23.8266 65.3803 22.5531 64.15 21.6382 62.5674C20.7232 60.9848 20.2657 59.124 20.2657 56.985V40.3304L25.3845 40.2933V56.9479C25.3845 57.8258 25.5329 58.6232 25.8296 59.3404C26.1264 60.0575 26.5344 60.6757 27.0537 61.195C27.5854 61.7143 28.1974 62.1161 28.8898 62.4005C29.5945 62.6725 30.3426 62.8085 31.1339 62.8085C31.9499 62.8085 32.7041 62.6663 33.3965 62.382C34.1013 62.0976 34.7133 61.6958 35.2326 61.1765C35.7519 60.6572 36.1538 60.0389 36.4381 59.3218C36.7349 58.6047 36.8832 57.8134 36.8832 56.9479V40.2933H42.002V56.985C42.002 59.124 41.5446 60.9848 40.6296 62.5674C39.7146 64.15 38.4411 65.3803 36.8091 66.2581C35.177 67.1236 33.2853 67.5564 31.1339 67.5564ZM53.3741 67V45.0041H44.9541V40.2933H66.8387V45.0041H58.4187V67H53.3741ZM80.6873 67.5564C78.536 67.5564 76.6442 67.1236 75.0122 66.2581C73.3801 65.3803 72.1066 64.15 71.1916 62.5674C70.2767 60.9848 69.8192 59.124 69.8192 56.985V40.3304L74.938 40.2933V56.9479C74.938 57.8258 75.0864 58.6232 75.3831 59.3404C75.6798 60.0575 76.0879 60.6757 76.6072 61.195C77.1388 61.7143 77.7508 62.1161 78.4432 62.4005C79.148 62.6725 79.896 62.8085 80.6873 62.8085C81.5034 62.8085 82.2576 62.6663 82.95 62.382C83.6548 62.0976 84.2668 61.6958 84.7861 61.1765C85.3054 60.6572 85.7072 60.0389 85.9916 59.3218C86.2883 58.6047 86.4367 57.8134 86.4367 56.9479V40.2933H91.5555V56.985C91.5555 59.124 91.098 60.9848 90.1831 62.5674C89.2681 64.15 87.9946 65.3803 86.3625 66.2581C84.7304 67.1236 82.8387 67.5564 80.6873 67.5564ZM96.7331 67V40.2933H108.009C108.269 40.2933 108.615 40.3057 109.048 40.3304C109.493 40.3427 109.889 40.3798 110.235 40.4417C111.83 40.6889 113.134 41.2144 114.148 42.0181C115.174 42.8218 115.929 43.8356 116.411 45.0597C116.893 46.2714 117.134 47.6253 117.134 49.1213C117.134 51.3593 116.578 53.2757 115.465 54.8707C114.352 56.4533 112.609 57.4301 110.235 57.801L108.009 57.9494H101.778V67H96.7331ZM111.793 67L106.526 56.1319L111.719 55.1304L117.505 67H111.793ZM101.778 53.2386H107.787C108.046 53.2386 108.331 53.2263 108.64 53.2015C108.949 53.1768 109.233 53.1273 109.493 53.0532C110.173 52.8677 110.698 52.5586 111.069 52.1258C111.44 51.6807 111.694 51.1923 111.83 50.6607C111.978 50.1167 112.052 49.6035 112.052 49.1213C112.052 48.6391 111.978 48.1322 111.83 47.6005C111.694 47.0565 111.44 46.5681 111.069 46.1354C110.698 45.6903 110.173 45.375 109.493 45.1895C109.233 45.1153 108.949 45.0659 108.64 45.0412C108.331 45.0164 108.046 45.0041 107.787 45.0041H101.778V53.2386ZM121.582 67V40.2933H139.016V45.0041H126.627V50.7163H136.79V55.4271H126.627V62.2892H139.016V67H121.582ZM153.55 67.5564C151.572 67.5564 149.785 67.2102 148.19 66.5178C146.608 65.813 145.303 64.8115 144.277 63.5133C143.263 62.2027 142.62 60.6448 142.348 58.8396L147.616 58.0607C147.986 59.5938 148.753 60.7746 149.915 61.603C151.078 62.4314 152.4 62.8456 153.884 62.8456C154.713 62.8456 155.516 62.7158 156.295 62.4562C157.074 62.1965 157.711 61.8132 158.205 61.3063C158.712 60.7993 158.966 60.175 158.966 59.4331C158.966 59.1611 158.923 58.9014 158.836 58.6542C158.762 58.3945 158.632 58.1534 158.447 57.9308C158.261 57.7083 157.995 57.4981 157.649 57.3003C157.315 57.1024 156.889 56.9232 156.369 56.7624L149.433 54.7223C148.914 54.574 148.308 54.3638 147.616 54.0918C146.936 53.8197 146.274 53.4303 145.631 52.9233C144.988 52.4164 144.45 51.7487 144.018 50.9203C143.597 50.0796 143.387 49.0224 143.387 47.7489C143.387 45.9561 143.838 44.4662 144.741 43.2792C145.643 42.0923 146.849 41.2082 148.357 40.6271C149.866 40.046 151.535 39.7616 153.365 39.774C155.207 39.7987 156.852 40.114 158.298 40.7199C159.745 41.3257 160.957 42.2097 161.933 43.372C162.91 44.5219 163.615 45.9314 164.048 47.6005L158.595 48.5279C158.397 47.6624 158.032 46.9329 157.501 46.3394C156.969 45.7459 156.332 45.2946 155.59 44.9855C154.861 44.6764 154.094 44.5095 153.291 44.4848C152.499 44.46 151.751 44.5713 151.047 44.8186C150.354 45.0535 149.785 45.3997 149.34 45.8572C148.908 46.3147 148.691 46.8587 148.691 47.4893C148.691 48.0704 148.871 48.5464 149.229 48.9173C149.588 49.2759 150.039 49.5665 150.583 49.789C151.127 50.0116 151.683 50.197 152.252 50.3454L156.889 51.6065C157.581 51.792 158.348 52.0393 159.188 52.3484C160.029 52.6451 160.833 53.0655 161.599 53.6096C162.378 54.1412 163.015 54.846 163.51 55.7238C164.017 56.6017 164.27 57.7145 164.27 59.0622C164.27 60.4964 163.967 61.7514 163.361 62.8271C162.768 63.8904 161.964 64.7744 160.95 65.4792C159.936 66.1716 158.787 66.6909 157.501 67.0371C156.227 67.3833 154.91 67.5564 153.55 67.5564Z" fill="#FBA61E"/>
</svg>
