<svg width="61" height="60" viewBox="0 0 61 60" fill="none" xmlns="http://www.w3.org/2000/svg">
<g clip-path="url(#clip0_1_8008)">
<path d="M12.331 51.7907C15.8647 51.7907 18.7294 48.926 18.7294 45.3923C18.7294 41.8586 15.8647 38.9939 12.331 38.9939C8.79727 38.9939 5.93262 41.8586 5.93262 45.3923C5.93262 48.926 8.79727 51.7907 12.331 51.7907Z" fill="#909BA6"/>
<path d="M53.4979 46.1166C56.5649 46.1166 59.0512 43.6303 59.0512 40.5633C59.0512 37.4963 56.5649 35.01 53.4979 35.01C50.4309 35.01 47.9446 37.4963 47.9446 40.5633C47.9446 43.6303 50.4309 46.1166 53.4979 46.1166Z" fill="#C8D2DC"/>
<path d="M48.4276 18.1086C50.9612 18.1086 53.0151 16.0547 53.0151 13.5211C53.0151 10.9875 50.9612 8.93359 48.4276 8.93359C45.894 8.93359 43.8401 10.9875 43.8401 13.5211C43.8401 16.0547 45.894 18.1086 48.4276 18.1086Z" fill="#E9EDF1"/>
<path d="M7.29014 36.1723C11.0402 36.1723 14.0803 33.2064 14.0803 29.5477C14.0803 25.889 11.0402 22.9231 7.29014 22.9231C3.54005 22.9231 0.5 25.889 0.5 29.5477C0.5 33.2064 3.54005 36.1723 7.29014 36.1723Z" fill="#7E8B96"/>
<path d="M26.7964 59.9999C30.2056 59.9999 32.9693 57.3069 32.9693 53.9848C32.9693 50.6628 30.2056 47.9697 26.7964 47.9697C23.3872 47.9697 20.6235 50.6628 20.6235 53.9848C20.6235 57.3069 23.3872 59.9999 26.7964 59.9999Z" fill="#A2ABB8"/>
<path d="M42.6603 57.3646C45.899 57.3646 48.5245 54.8082 48.5245 51.6547C48.5245 48.5012 45.899 45.9448 42.6603 45.9448C39.4216 45.9448 36.7961 48.5012 36.7961 51.6547C36.7961 54.8082 39.4216 57.3646 42.6603 57.3646Z" fill="#B9C3CD"/>
<path d="M14.6358 20.7876C18.5563 20.7876 21.7345 17.6853 21.7345 13.8584C21.7345 10.0315 18.5563 6.9292 14.6358 6.9292C10.7153 6.9292 7.53711 10.0315 7.53711 13.8584C7.53711 17.6853 10.7153 20.7876 14.6358 20.7876Z" fill="#5F6C75"/>
<path d="M55.253 31.2836C58.1508 31.2836 60.4999 28.978 60.4999 26.134C60.4999 23.2899 58.1508 20.9844 55.253 20.9844C52.3552 20.9844 50.0061 23.2899 50.0061 26.134C50.0061 28.978 52.3552 31.2836 55.253 31.2836Z" fill="#DCE6EB"/>
<path d="M32.2505 14.9698C36.3843 14.9698 39.7354 11.6187 39.7354 7.48491C39.7354 3.35111 36.3843 0 32.2505 0C28.1167 0 24.7656 3.35111 24.7656 7.48491C24.7656 11.6187 28.1167 14.9698 32.2505 14.9698Z" fill="#4E5A61"/>
</g>
<defs>
<clipPath id="clip0_1_8008">
<rect width="60" height="60" fill="white" transform="translate(0.5)"/>
</clipPath>
</defs>
</svg>
