<svg width="172" height="83" viewBox="0 0 172 83" fill="none" xmlns="http://www.w3.org/2000/svg">
<path d="M20.2418 10.0088H28.3385V33.0218C28.3385 36.1805 27.6188 38.4818 26.1794 39.9257C24.77 41.3396 22.4909 42.0466 19.3422 42.0466H8.99636C5.84763 42.0466 3.55356 41.3396 2.11414 39.9257C0.704715 38.4818 0 36.1805 0 33.0218V10.0088H8.09672V33.0218C8.09672 34.8268 8.99636 35.7293 10.7956 35.7293H17.5429C19.3422 35.7293 20.2418 34.8268 20.2418 33.0218V10.0088Z" fill="white"/>
<path d="M33.7363 10.0088H52.6287C55.7774 10.0088 58.0565 10.7308 59.4659 12.1747C60.9053 13.5886 61.625 15.8749 61.625 19.0335V23.5459C61.625 26.7045 60.9053 29.0058 59.4659 30.4498C58.0565 31.8637 55.7774 32.5706 52.6287 32.5706H41.8331V41.5953H33.7363V10.0088ZM53.5283 19.0335C53.5283 17.2286 52.6287 16.3261 50.8294 16.3261H41.8331V26.2533H50.8294C52.6287 26.2533 53.5283 25.3508 53.5283 23.5459V19.0335Z" fill="white"/>
<path d="M17.6481 50.4545C21.0368 50.4545 23.6007 51.342 25.34 53.1168C27.1093 54.8616 27.9939 57.4337 27.9939 60.833V71.6626C27.9939 75.0619 27.1093 77.649 25.34 79.4239C23.6007 81.1687 21.0368 82.0411 17.6481 82.0411H0.105225V50.4545H17.6481ZM19.8972 60.833C19.8972 58.1255 18.5478 56.7718 15.8489 56.7718H8.20195V75.7238H15.8489C18.5478 75.7238 19.8972 74.37 19.8972 71.6626V60.833Z" fill="white"/>
<path d="M52.7216 59.028C52.7216 57.2231 51.822 56.3206 50.0227 56.3206H42.3758C40.5765 56.3206 39.6769 57.2231 39.6769 59.028V73.4676C39.6769 75.2725 40.5765 76.175 42.3758 76.175H50.0227C51.822 76.175 52.7216 75.2725 52.7216 73.4676V59.028ZM60.8183 73.4676C60.8183 76.6262 60.0986 78.9275 58.6592 80.3715C57.2498 81.7854 54.9707 82.4923 51.822 82.4923H40.5765C37.4278 82.4923 35.1337 81.7854 33.6943 80.3715C32.2849 78.9275 31.5802 76.6262 31.5802 73.4676V59.028C31.5802 55.8694 32.2849 53.5831 33.6943 52.1692C35.1337 50.7253 37.4278 50.0033 40.5765 50.0033H51.822C54.9707 50.0033 57.2498 50.7253 58.6592 52.1692C60.0986 53.5831 60.8183 55.8694 60.8183 59.028V73.4676Z" fill="white"/>
<path d="M88.1905 50.4545L93.5883 70.7602L98.3114 50.4545H107.083L98.5363 82.0411H89.9897L84.5919 62.4123L79.1941 82.0411H70.6476L62.101 50.4545H70.8725L75.5956 70.7602L80.9934 50.4545H88.1905Z" fill="white"/>
<path d="M136.792 82.0411H128.245L117.45 63.0891V82.0411H109.353V50.4545H117.9L128.695 69.4065V50.4545H136.792V82.0411Z" fill="white"/>
<path d="M54.6375 39.1794C54.6375 38.6542 54.3918 38.3916 53.9002 38.3916H51.8113C51.3198 38.3916 51.0741 38.6542 51.0741 39.1794V43.381C51.0741 43.9062 51.3198 44.1688 51.8113 44.1688H53.9002C54.3918 44.1688 54.6375 43.9062 54.6375 43.381V39.1794ZM56.8493 43.381C56.8493 44.3001 56.6527 44.9697 56.2595 45.3898C55.8745 45.8012 55.2519 46.0069 54.3918 46.0069H51.3198C50.4597 46.0069 49.833 45.8012 49.4398 45.3898C49.0548 44.9697 48.8623 44.3001 48.8623 43.381V39.1794C48.8623 38.2603 49.0548 37.5951 49.4398 37.1837C49.833 36.7635 50.4597 36.5535 51.3198 36.5535H54.3918C55.2519 36.5535 55.8745 36.7635 56.2595 37.1837C56.6527 37.5951 56.8493 38.2603 56.8493 39.1794V43.381Z" fill="white"/>
<path d="M58.0838 36.6848H63.2446C64.1048 36.6848 64.7274 36.8948 65.1124 37.315C65.5056 37.7264 65.7022 38.3916 65.7022 39.3107V40.4924C65.7022 41.2189 65.5875 41.7835 65.3581 42.1862C65.1369 42.5888 64.7806 42.8558 64.2891 42.9871L65.8251 45.8756H63.429L62.0159 43.1184H60.2956V45.8756H58.0838V36.6848ZM63.4904 39.3107C63.4904 38.7855 63.2446 38.5229 62.7531 38.5229H60.2956V41.2802H62.7531C63.2446 41.2802 63.4904 41.0176 63.4904 40.4924V39.3107Z" fill="white"/>
<path fill-rule="evenodd" clip-rule="evenodd" d="M82.2246 42.2399L82.5737 42.6979L82.0367 42.644L82.2246 42.2399ZM73.4971 28.4204L71.8321 29.04C73.3091 30.8988 74.8398 32.8653 76.5047 34.9665L77.2566 35.9094C76.5584 37.8489 75.8871 39.7346 75.2426 41.5126C73.7388 39.3844 72.3155 37.3371 70.9728 35.4245C69.7912 33.7543 68.6902 32.1918 67.6161 30.6833L65.1992 31.6261L66.891 25.2955L73.4971 28.3935V28.4204Z" fill="white"/>
<path fill-rule="evenodd" clip-rule="evenodd" d="M136.82 22.7362L105.911 18.2644L131.127 0L136.82 22.7362Z" fill="white"/>
<path fill-rule="evenodd" clip-rule="evenodd" d="M75.6444 42.078C76.45 39.8152 77.3094 37.3907 78.2224 34.8315C79.0549 32.4879 79.9411 30.0095 80.8541 27.3965C82.3848 29.5516 83.996 31.7875 85.6878 34.1311L86.1175 34.7507C84.8553 37.5523 83.6738 40.1923 82.5727 42.6707C80.0216 42.4552 77.7122 42.2397 75.6444 42.078ZM90.065 23.7867L91.2197 23.4904L90.7364 24.5679L90.065 23.7867Z" fill="white"/>
<path fill-rule="evenodd" clip-rule="evenodd" d="M109.13 44.6372L109.452 45.0143L108.835 44.9605L109.13 44.6372ZM99.1671 34.1042L92.8564 43.6405L81.3092 26.1034C84.2094 25.3491 87.4856 24.4871 91.2183 23.4904C93.7426 26.4805 96.428 29.6593 99.3282 33.0805L99.6236 33.4038L99.1671 34.1042Z" fill="white"/>
<path fill-rule="evenodd" clip-rule="evenodd" d="M109.911 44.9606C113.617 40.9198 117.726 36.3672 122.452 31.168C125.997 27.2889 129.917 23.0056 134.241 18.2644H111.147C107.468 23.706 104.218 28.555 101.318 32.946L93.3155 44.9875H109.911V44.9606Z" fill="white"/>
<path style="mix-blend-mode:multiply" fill-rule="evenodd" clip-rule="evenodd" d="M99.1704 34.1042L92.8598 43.6405L81.3125 26.1034C84.2128 25.3491 87.489 24.4871 91.2217 23.4904C93.7459 26.4805 96.4313 29.6593 99.3316 33.0805L99.627 33.4038L99.1704 34.1042Z" fill="url(#paint0_linear_123_3)"/>
<path d="M155.299 67.5912H144.041C143.541 67.5912 143.103 67.7794 142.728 68.153C142.352 68.5275 142.165 68.9636 142.165 69.4627V80.6894C142.165 81.1885 142.353 81.6252 142.728 81.9991C143.103 82.3725 143.541 82.5604 144.041 82.5604H155.299C155.799 82.5604 156.238 82.373 156.612 81.9991C156.988 81.6252 157.176 81.1885 157.176 80.6894V69.4627C157.176 68.9636 156.989 68.5275 156.612 68.153C156.238 67.7785 155.799 67.5912 155.299 67.5912Z" fill="white"/>
<path d="M170.077 33.985C168.794 31.6294 167.137 29.6424 165.104 28.0205C163.072 26.3992 160.788 25.1044 158.255 24.1381C155.722 23.1721 153.205 22.6885 150.702 22.6885C141.196 22.6885 133.941 26.8359 128.937 35.131C128.687 35.5362 128.601 35.9727 128.679 36.4406C128.757 36.9078 129 37.2977 129.406 37.6095L137.099 43.4569C137.506 43.706 137.897 43.8306 138.272 43.8306C138.835 43.8306 139.32 43.5808 139.727 43.0819C141.978 40.2758 143.651 38.4828 144.746 37.7027C146.091 36.7987 147.779 36.3468 149.812 36.3468C151.719 36.3468 153.4 36.8459 154.855 37.843C156.309 38.8411 157.035 39.9949 157.035 41.3046C157.035 42.7696 156.645 43.9552 155.863 44.8595C155.081 45.7636 153.767 46.6363 151.922 47.4786C149.483 48.5699 147.246 50.2618 145.214 52.5538C143.181 54.846 142.165 57.2862 142.165 59.8743V61.9791C142.165 62.5721 142.329 63.1565 142.658 63.7334C142.986 64.3107 143.385 64.5989 143.854 64.5989H155.112C155.613 64.5989 156.05 64.3578 156.426 63.8728C156.8 63.3908 156.989 62.8839 156.989 62.3546C156.989 61.5752 157.419 60.5294 158.278 59.2204C159.138 57.9107 160.209 56.8963 161.492 56.1788C162.711 55.493 163.664 54.9402 164.353 54.5187C165.042 54.0983 165.94 53.4185 167.051 52.4837C168.161 51.5479 169.021 50.6201 169.63 49.7005C170.24 48.7807 170.788 47.5877 171.273 46.1217C171.758 44.6562 172 43.0813 172 41.3975C172 38.8093 171.358 36.3382 170.077 33.985Z" fill="white"/>
<defs>
<linearGradient id="paint0_linear_123_3" x1="82.5747" y1="28.3124" x2="104.95" y2="40.5908" gradientUnits="userSpaceOnUse">
<stop offset="0.28" stop-color="white"/>
<stop offset="0.34" stop-color="#F4F4F4"/>
<stop offset="0.45" stop-color="#D8D8D8"/>
<stop offset="0.59" stop-color="#AAAAAA"/>
<stop offset="0.75" stop-color="#6A6A6A"/>
<stop offset="0.94" stop-color="#191919"/>
<stop offset="1"/>
</linearGradient>
</defs>
</svg>
