<svg width="84" height="84" viewBox="0 0 84 84" fill="none" xmlns="http://www.w3.org/2000/svg">
<g clip-path="url(#clip0_58_522)">
<path d="M42 83.7812C18.804 83.7812 0 65.2011 0 42.2812C0 19.3614 18.804 0.78125 42 0.78125C65.196 0.78125 84 19.3614 84 42.2812C84 65.2011 65.196 83.7812 42 83.7812Z" fill="#FF0054"/>
<path d="M42 0.78125C42.0309 0.78125 42.0614 0.782385 42.0923 0.782385V83.7801C42.0614 83.7801 42.0309 83.7812 42 83.7812C18.8041 83.7812 3.05176e-05 65.201 3.05176e-05 42.2812C3.05176e-05 19.3615 18.8041 0.78125 42 0.78125Z" fill="#D90041"/>
<path d="M20.8943 25.9883L25.4853 21.452C26.3588 20.5889 27.7752 20.5889 28.6487 21.452L42 34.6444L55.3513 21.452C56.2248 20.5889 57.6412 20.5889 58.5147 21.452L63.1056 25.9883C63.9791 26.8514 63.9791 28.2509 63.1056 29.1141L49.7543 42.3064L63.1056 55.4987C63.9791 56.3618 63.9791 57.7614 63.1056 58.6245L58.5147 63.1608C57.6412 64.0239 56.2248 64.0239 55.3513 63.1608L42 49.9684L28.6487 63.1608C27.7752 64.0239 26.3588 64.0239 25.4853 63.1608L20.8943 58.6245C20.0208 57.7614 20.0208 56.3618 20.8943 55.4987L34.2456 42.3064L20.8943 29.1141C20.0208 28.2509 20.0208 26.8514 20.8943 25.9883Z" fill="#FFF5F5"/>
<path d="M20.8944 25.9883L25.4853 21.452C26.3588 20.5889 27.7752 20.5889 28.6487 21.452L42 34.6444L42.0923 34.5532V50.0594L42 49.9683L28.6487 63.1606C27.7752 64.0237 26.3588 64.0237 25.4853 63.1606L20.8944 58.6243C20.0209 57.7612 20.0209 56.3617 20.8944 55.4986L34.2457 42.3064L20.8944 29.1141C20.0209 28.2509 20.0209 26.8514 20.8944 25.9883Z" fill="#EBE2F0"/>
</g>
<defs>
<clipPath id="clip0_58_522">
<rect width="84" height="83" fill="white" transform="matrix(-1 0 0 1 84 0.78125)"/>
</clipPath>
</defs>
</svg>
