<svg width="32" height="32" viewBox="0 0 32 32" fill="none" xmlns="http://www.w3.org/2000/svg">
<path d="M31.5211 19.8706C29.3838 28.442 20.7015 33.6584 12.128 31.521C3.55814 29.384 -1.65893 20.7021 0.479272 12.1312C2.61549 3.55878 11.2979 -1.65818 19.8689 0.478786C28.4417 2.61579 33.6583 11.2987 31.5211 19.8706Z" fill="#66D535"/>
<path d="M22.7401 17.4861L16.6152 11.2639C16.4422 11.0879 16.2371 11 16 11C15.7629 11 15.5579 11.0879 15.3847 11.2639L9.25973 17.4861C9.08653 17.6621 9 17.8704 9 18.1111C9 18.3518 9.08653 18.5603 9.25973 18.7361C9.43313 18.912 9.63813 19 9.87507 19H22.1249C22.3619 19 22.567 18.912 22.7401 18.7361C22.9131 18.5603 23 18.3519 23 18.1111C23 17.8704 22.9131 17.6621 22.7401 17.4861Z" fill="white"/>
</svg>
