<svg width="181" height="161" viewBox="0 0 181 161" fill="none" xmlns="http://www.w3.org/2000/svg">
<g clip-path="url(#clip0_1_8368)">
<path d="M138.978 37.0537H136.947V69.7012H127.815V98.0885H136.947V130.738H138.978V98.0885H148.11V69.7012H138.978V37.0537Z" fill="#66D535"/>
<path d="M107.024 62.4365H104.996V87.2858H95.8616V108.894H104.996V133.744H107.024V108.894H116.159V87.2858H107.024V62.4365Z" fill="#66D535"/>
<path d="M75.0691 64.6499H73.0388V98.0132H63.9062V127.026H73.0388V160.389H75.0691V127.026H84.2017V98.0132H75.0691V64.6499Z" fill="#66D535"/>
<path d="M42.8834 25.6338H41.3218V55.7054H31.9541V118.866H41.3218V148.935H42.8834V118.866H52.2511V55.7054H42.8834V25.6338Z" fill="#66D535"/>
<path d="M11.1636 25.8911H9.13326V64.4669H0.000732422V98.0125H9.13326V136.588H11.1636V98.0125H20.2961V64.4669H11.1636V25.8911Z" fill="#66D535"/>
<path d="M180.064 39.3866H170.93V0.809082H168.901V39.3866H159.767V72.9305H168.901V111.508H170.93V72.9305H180.064V39.3866Z" fill="#66D535"/>
</g>
<defs>
<clipPath id="clip0_1_8368">
<rect width="180.066" height="159.58" fill="white" transform="translate(0 0.809082)"/>
</clipPath>
</defs>
</svg>
