<svg width="49" height="49" viewBox="0 0 49 49" fill="none" xmlns="http://www.w3.org/2000/svg">
<g clip-path="url(#clip0_123_33)">
<g opacity="0.24">
<path d="M47.3054 30.0861C44.0999 42.9432 31.0779 50.7678 18.2192 47.5617C5.36588 44.3562 -2.45881 31.3333 0.748121 18.4769C3.95207 5.61832 16.9742 -2.20711 29.8291 0.998331C42.6869 4.20383 50.5109 17.2282 47.3054 30.0861Z" fill="#424F66"/>
<path d="M1.91406 18.7675C4.90998 6.74377 16.9433 -0.647047 28.9658 2.02917L29.5381 2.16492C41.5608 5.16222 48.9507 17.1969 46.2744 29.2225L46.1396 29.7958C43.1422 41.8177 31.1091 49.207 19.083 46.5302L18.5098 46.3954C6.49152 43.398 -0.898206 31.3646 1.7793 19.3407L1.91406 18.7675Z" stroke="url(#paint0_linear_123_33)" stroke-opacity="0.24" stroke-width="2.40368"/>
</g>
<g clip-path="url(#clip1_123_33)">
<path d="M30.4058 29C28.3383 29 26.6558 27.3175 26.6558 25.25C26.6558 23.1825 28.3383 21.5 30.4058 21.5H32.4891V19.8334C32.4891 18.9142 31.7416 18.1667 30.8224 18.1667H29.9891V16.5C29.9891 15.5809 29.2416 14.8334 28.3224 14.8334H16.6558C15.4199 14.8334 14.3983 15.7367 14.1983 16.9159C14.1799 16.9842 14.1558 17.0509 14.1558 17.125V29.8334C14.1558 31.2117 15.2774 32.3334 16.6558 32.3334H30.8224C31.7416 32.3334 32.4891 31.5859 32.4891 30.6667V29H30.4058ZM15.8224 17.3334C15.8224 16.8742 16.1958 16.5 16.6558 16.5H28.3224V18.1667H16.6558C16.1958 18.1667 15.8224 17.7925 15.8224 17.3334Z" fill="#424F66"/>
<path d="M33.5308 22.75H30.4058C29.0274 22.75 27.9058 23.8717 27.9058 25.25C27.9058 26.6283 29.0274 27.75 30.4058 27.75H33.5308C33.8758 27.75 34.1558 27.47 34.1558 27.125V23.375C34.1558 23.03 33.8758 22.75 33.5308 22.75ZM30.4058 26.0833C29.9458 26.0833 29.5724 25.71 29.5724 25.25C29.5724 24.79 29.9458 24.4167 30.4058 24.4167C30.8658 24.4167 31.2391 24.79 31.2391 25.25C31.2391 25.71 30.8658 26.0833 30.4058 26.0833Z" fill="#424F66"/>
</g>
</g>
<defs>
<linearGradient id="paint0_linear_123_33" x1="0.0292969" y1="24.2802" x2="48.0237" y2="24.2802" gradientUnits="userSpaceOnUse">
<stop stop-color="#0E121D"/>
<stop offset="1" stop-color="#CAD1DD"/>
</linearGradient>
<clipPath id="clip0_123_33">
<rect width="48" height="48" fill="white" transform="translate(0.0263672 0.280151)"/>
</clipPath>
<clipPath id="clip1_123_33">
<rect width="20" height="20" fill="white" transform="translate(14.1558 14)"/>
</clipPath>
</defs>
</svg>
