<svg width="72" height="72" viewBox="0 0 72 72" fill="none" xmlns="http://www.w3.org/2000/svg">
<g clip-path="url(#clip0_1_7419)">
<path d="M45.4136 8.80906L70.5485 52.3442C71.4703 53.9407 72.0003 55.7916 72.0003 57.7675C72.0003 63.768 67.1358 68.6328 61.135 68.6328H36.0003L27.3081 36L36.0003 3.36743C40.025 3.36743 43.5359 5.55738 45.4136 8.80906Z" fill="#0E121D"/>
<path d="M26.5867 8.80906L1.45167 52.3442C0.530016 53.9407 0 55.7916 0 57.7675C0 63.768 4.8645 68.6328 10.8652 68.6328H36V3.36743C31.9753 3.36743 28.4643 5.55738 26.5867 8.80906Z" fill="#0E121D"/>
<path d="M66.7848 54.5173L41.65 10.9826C40.5171 9.01961 38.4369 7.78099 36.187 7.71729L57.6842 64.2872H61.135C64.7292 64.2872 67.6541 61.3625 67.6541 57.7681C67.6541 56.6265 67.3527 55.5024 66.7848 54.5173Z" fill="#FFB751"/>
<path d="M62.5575 54.5173C63.0485 55.5023 63.3079 56.6265 63.3079 57.7681C63.3079 61.3623 60.7858 64.2872 57.684 64.2872H10.8653C7.27105 64.2872 4.34619 61.3623 4.34619 57.7681C4.34619 56.6265 4.64755 55.5023 5.21539 54.5173L30.3501 10.9826C31.5149 8.966 33.6793 7.71289 36 7.71289C36.0623 7.71289 36.1246 7.7143 36.1869 7.71725C38.118 7.79262 39.9014 9.0283 40.8734 10.9826L62.5575 54.5173Z" fill="#FFD764"/>
<path d="M36 49.7998V57.0433C38.0007 57.0433 39.6218 55.4221 39.6218 53.4215C39.6218 51.4209 38.0007 49.7998 36 49.7998Z" fill="#0E121D"/>
<path d="M36.0002 49.7998C36.4 49.7998 36.7246 51.4209 36.7246 53.4216C36.7246 55.4223 36.4 57.0434 36.0002 57.0434C33.9995 57.0434 32.3784 55.4223 32.3784 53.4216C32.3784 51.4209 33.9995 49.7998 36.0002 49.7998Z" fill="#0E121D"/>
<path d="M36 18.6533V45.4542C38.0007 45.4542 39.6218 43.8317 39.6218 41.8324V22.2751C39.6218 20.2744 38.0007 18.6533 36 18.6533Z" fill="#0E121D"/>
<path d="M36.0002 18.6533C36.4 18.6533 36.7246 20.2744 36.7246 22.2751V41.8324C36.7246 43.8315 36.4 45.4542 36.0002 45.4542C33.9995 45.4542 32.3784 43.8317 32.3784 41.8324V22.2751C32.3784 20.2744 33.9995 18.6533 36.0002 18.6533Z" fill="#0E121D"/>
</g>
<defs>
<clipPath id="clip0_1_7419">
<rect width="72" height="72" fill="white"/>
</clipPath>
</defs>
</svg>
