<svg width="121" height="481" viewBox="0 0 121 481" fill="none" xmlns="http://www.w3.org/2000/svg">
<path d="M90.5668 230.377L103.917 230.727L99.0501 242.611L74.6834 302.177C66.5501 322.044 58.4834 341.927 50.2334 361.727L25.5668 421.194C17.2501 440.977 9.01676 460.811 0.600098 480.561C7.18343 460.127 13.9501 439.761 20.6168 419.361L40.9501 358.261C47.6834 337.894 54.6167 317.594 61.4667 297.261L77.8334 248.827L76.6334 248.861C71.9834 249.011 67.3501 249.011 62.7001 249.061C58.0501 249.144 53.4168 249.011 48.7668 248.994C44.1168 248.961 39.4834 248.794 34.8334 248.694L21.3334 248.394L26.1334 236.311L49.5167 177.277C57.3501 157.611 65.0501 137.894 73.0001 118.277L96.7001 59.3605C104.733 39.7605 112.633 20.1105 120.75 0.560547C114.55 20.8105 108.133 40.9772 101.833 61.1939L82.5834 121.727C76.2167 141.911 69.6001 162.011 63.1168 182.161L47.6501 229.894C48.0168 229.894 48.4001 229.877 48.7668 229.877C53.4168 229.861 58.0501 229.727 62.7001 229.811C67.3501 229.877 71.9834 229.877 76.6334 230.011L90.5668 230.377Z" fill="white"/>
</svg>
