<svg width="30" height="30" viewBox="0 0 30 30" fill="none" xmlns="http://www.w3.org/2000/svg">
<path d="M14.959 0.00683594C6.72908 0.00683594 0.118164 6.61775 0.118164 14.8477C0.118164 23.0776 6.72908 29.6885 14.959 29.6885C23.1889 29.6885 29.7998 23.0776 29.7998 14.8477C29.7998 6.61775 23.1889 0.00683594 14.959 0.00683594ZM22.3794 9.85575C22.6492 9.72084 22.9191 9.85575 23.054 9.99067C23.1889 10.2605 23.054 10.5303 22.9191 10.6653C22.6492 10.8002 22.3794 10.6653 22.2445 10.5303C21.9747 10.3954 22.1096 9.99067 22.3794 9.85575ZM19.5462 5.67334C19.6811 5.4035 20.0858 5.26859 20.3557 5.4035C20.6255 5.53842 20.7604 5.94317 20.4906 6.07809C20.3557 6.34792 19.9509 6.48284 19.816 6.213C19.5462 6.213 19.4112 5.94317 19.5462 5.67334ZM20.3557 11.7446C20.6255 12.1493 20.4906 12.689 20.0858 12.8239C19.6811 13.0938 19.1414 12.9588 19.0065 12.5541C18.7367 12.1493 18.8716 11.6097 19.2763 11.4748C19.6811 11.2049 20.0858 11.3398 20.3557 11.7446ZM19.5462 14.8477C19.5462 15.6572 19.0065 16.1968 18.197 16.1968C17.3875 16.1968 16.8478 15.6572 16.8478 14.8477C16.8478 14.0382 17.3875 13.4985 18.197 13.4985C19.0065 13.4985 19.5462 14.0382 19.5462 14.8477ZM17.6573 8.50659C17.9272 8.10184 18.3319 7.96692 18.7367 8.23675C19.1414 8.50659 19.2763 8.91134 19.0065 9.31609C18.7367 9.72084 18.3319 9.85575 17.9272 9.58592C17.5224 9.451 17.3875 8.91134 17.6573 8.50659ZM17.9272 12.0144C17.9272 12.8239 17.3875 13.3636 16.578 13.3636C15.7685 13.3636 15.2288 12.8239 15.2288 12.0144C15.2288 11.2049 15.7685 10.6653 16.578 10.6653C17.2526 10.6653 17.9272 11.3398 17.9272 12.0144ZM14.959 5.4035C15.2288 5.4035 15.4987 5.67334 15.4987 5.94317C15.4987 6.213 15.2288 6.48284 14.959 6.48284C14.6892 6.48284 14.4193 6.213 14.4193 5.94317C14.4193 5.67334 14.6892 5.4035 14.959 5.4035ZM14.959 8.6415C15.3637 8.6415 15.7685 9.04625 15.7685 9.451C15.7685 9.85575 15.3637 10.2605 14.959 10.2605C14.5542 10.2605 14.1495 9.85575 14.1495 9.451C14.1495 9.04625 14.5542 8.6415 14.959 8.6415ZM14.6892 12.0144C14.6892 12.8239 14.1495 13.3636 13.34 13.3636C12.5305 13.3636 11.9908 12.8239 11.9908 12.0144C11.9908 11.2049 12.5305 10.6653 13.34 10.6653C14.1495 10.6653 14.6892 11.3398 14.6892 12.0144ZM13.0702 14.8477C13.0702 15.6572 12.5305 16.1968 11.721 16.1968C10.9115 16.1968 10.3718 15.6572 10.3718 14.8477C10.3718 14.0382 10.9115 13.4985 11.721 13.4985C12.5305 13.4985 13.0702 14.0382 13.0702 14.8477ZM11.1813 8.23675C11.5861 7.96692 12.1257 8.10184 12.2607 8.50659C12.3956 8.91134 12.3956 9.451 11.9908 9.72084C11.5861 9.85575 11.0464 9.72084 10.9115 9.31609C10.6417 8.91134 10.7766 8.50659 11.1813 8.23675ZM10.9115 12.5541C10.6417 12.9588 10.2369 13.0938 9.83216 12.8239C9.42741 12.5541 9.2925 12.1493 9.56233 11.7446C9.83216 11.3398 10.2369 11.2049 10.6417 11.4748C11.0464 11.6097 11.1813 12.1493 10.9115 12.5541ZM4.70533 15.3873C4.4355 15.3873 4.16566 15.1175 4.16566 14.8477C4.16566 14.5778 4.4355 14.308 4.70533 14.308C4.97516 14.308 5.245 14.5778 5.245 14.8477C5.245 15.1175 4.97516 15.3873 4.70533 15.3873ZM6.72908 10.1256C6.864 9.85575 7.26875 9.72084 7.53858 9.99067C7.80841 10.2605 7.94333 10.5303 7.6735 10.6653C7.53858 10.9351 7.26875 11.07 6.99891 10.8002C6.72908 10.5303 6.59416 10.3954 6.72908 10.1256ZM7.53858 19.8396C7.26875 19.9745 6.99891 19.8396 6.864 19.7047C6.72908 19.4348 6.864 19.165 6.99891 19.0301C7.26875 18.8952 7.53858 19.0301 7.6735 19.165C7.94333 19.2999 7.80841 19.7047 7.53858 19.8396ZM8.21316 15.6572C7.80841 15.6572 7.40366 15.2524 7.40366 14.8477C7.40366 14.4429 7.80841 14.0382 8.21316 14.0382C8.61791 14.0382 9.02266 14.4429 9.02266 14.8477C9.02266 15.2524 8.61791 15.6572 8.21316 15.6572ZM9.56233 5.53842C9.83216 5.4035 10.102 5.53842 10.2369 5.67334C10.3718 5.80825 10.2369 6.213 10.102 6.34792C9.83216 6.61775 9.56233 6.48284 9.42741 6.213C9.2925 5.94317 9.2925 5.67334 9.56233 5.53842ZM10.3718 24.022C10.2369 24.2918 9.83216 24.4268 9.56233 24.2918C9.2925 24.1569 9.15758 23.7522 9.42741 23.6173C9.56233 23.3474 9.96708 23.2125 10.102 23.4823C10.3718 23.4823 10.5067 23.7522 10.3718 24.022ZM9.56233 17.9508C9.2925 17.546 9.42741 17.0063 9.83216 16.8714C10.2369 16.6016 10.7766 16.7365 10.9115 17.1413C11.1813 17.546 11.0464 18.0857 10.6417 18.2206C10.2369 18.4904 9.83216 18.3555 9.56233 17.9508ZM12.2607 21.1888C11.9908 21.5935 11.5861 21.7284 11.1813 21.4586C10.7766 21.1888 10.6417 20.784 10.9115 20.3793C11.1813 19.9745 11.5861 19.8396 11.9908 20.1094C12.3956 20.2443 12.5305 20.784 12.2607 21.1888ZM11.9908 17.6809C11.9908 16.8714 12.5305 16.3318 13.34 16.3318C14.1495 16.3318 14.6892 16.8714 14.6892 17.6809C14.6892 18.4904 14.1495 19.0301 13.34 19.0301C12.5305 19.0301 11.9908 18.3555 11.9908 17.6809ZM14.959 24.2918C14.6892 24.2918 14.4193 24.022 14.4193 23.7522C14.4193 23.4823 14.6892 23.2125 14.959 23.2125C15.2288 23.2125 15.4987 23.4823 15.4987 23.7522C15.4987 24.022 15.2288 24.2918 14.959 24.2918ZM14.959 21.0538C14.5542 21.0538 14.1495 20.6491 14.1495 20.2443C14.1495 19.8396 14.5542 19.4348 14.959 19.4348C15.3637 19.4348 15.7685 19.8396 15.7685 20.2443C15.7685 20.784 15.3637 21.0538 14.959 21.0538ZM16.578 19.0301C15.7685 19.0301 15.2288 18.4904 15.2288 17.6809C15.2288 16.8714 15.7685 16.3318 16.578 16.3318C17.3875 16.3318 17.9272 16.8714 17.9272 17.6809C17.9272 18.4904 17.2526 19.0301 16.578 19.0301ZM18.7367 21.4586C18.3319 21.7284 17.7922 21.5935 17.6573 21.1888C17.3875 20.784 17.5224 20.2443 17.9272 20.1094C18.3319 19.8396 18.8716 19.9745 19.0065 20.3793C19.2763 20.784 19.1414 21.1888 18.7367 21.4586ZM19.0065 17.1413C19.2763 16.7365 19.6811 16.6016 20.0858 16.8714C20.4906 17.1413 20.6255 17.546 20.3557 17.9508C20.0858 18.3555 19.6811 18.4904 19.2763 18.2206C18.8716 18.0857 18.7367 17.546 19.0065 17.1413ZM20.3557 24.2918C20.0858 24.4268 19.816 24.2918 19.6811 24.1569C19.5462 24.022 19.6811 23.6173 19.816 23.4823C19.9509 23.3474 20.3557 23.4823 20.4906 23.6173C20.6255 23.7522 20.6255 24.022 20.3557 24.2918ZM20.8953 14.8477C20.8953 14.4429 21.3001 14.0382 21.7048 14.0382C22.1096 14.0382 22.5143 14.4429 22.5143 14.8477C22.5143 15.2524 22.1096 15.6572 21.7048 15.6572C21.3001 15.6572 20.8953 15.2524 20.8953 14.8477ZM23.1889 19.5698C23.054 19.8396 22.6493 19.9745 22.5143 19.7047C22.3794 19.4348 22.1096 19.165 22.3794 19.0301C22.5143 18.7603 22.9191 18.6253 23.054 18.8952C23.1889 19.165 23.3238 19.2999 23.1889 19.5698ZM25.2127 15.3873C24.9428 15.3873 24.673 15.1175 24.673 14.8477C24.673 14.5778 24.9428 14.308 25.2127 14.308C25.4825 14.308 25.7523 14.5778 25.7523 14.8477C25.7523 15.1175 25.4825 15.3873 25.2127 15.3873Z" fill="#2079FF"/>
</svg>
