<svg width="34" height="34" viewBox="0 0 34 34" fill="none" xmlns="http://www.w3.org/2000/svg">
<g clip-path="url(#clip0_1_3584)">
<path d="M16.959 33.2687C25.9005 33.2687 33.149 26.0202 33.149 17.0787C33.149 8.13718 25.9005 0.888672 16.959 0.888672C8.01755 0.888672 0.769043 8.13718 0.769043 17.0787C0.769043 26.0202 8.01755 33.2687 16.959 33.2687Z" fill="#F3BC36"/>
<path fill-rule="evenodd" clip-rule="evenodd" d="M13.4475 15.6314L16.9591 12.1182L20.4805 15.6395L22.5253 13.5947L16.9591 8.02856L11.4011 13.585L13.4475 15.6314ZM7.90894 17.0788L9.95373 15.034L11.9985 17.0788L9.95373 19.1236L7.90894 17.0788ZM13.4475 18.5359L16.9591 22.0394L20.4805 18.5181L22.5253 20.5629L16.9591 26.1306L11.4011 20.5726L13.4475 18.5359ZM21.9198 17.0788L23.9646 15.034L26.011 17.0788L23.9646 19.1236L21.9198 17.0788ZM19.0412 17.0788L16.9591 19.1511L14.8868 17.0788L15.2479 16.7161L15.4292 16.5364L16.9591 15.0065L19.0412 17.0788Z" fill="white"/>
</g>
<defs>
<clipPath id="clip0_1_3584">
<rect width="32.38" height="32.38" fill="white" transform="translate(0.769043 0.888672)"/>
</clipPath>
</defs>
</svg>
