<svg width="34" height="33" viewBox="0 0 34 33" fill="none" xmlns="http://www.w3.org/2000/svg">
<g clip-path="url(#clip0_1_3555)">
<path d="M32.6614 20.1487C30.4991 28.8216 21.715 34.0998 13.0411 31.937C4.37082 29.7748 -0.907374 20.9901 1.25588 12.3177C3.41713 3.64387 12.2013 -1.63483 20.8726 0.527421C29.546 2.68971 34.8237 11.4754 32.6614 20.1487Z" fill="#F7931A"/>
<path d="M11.6331 18.9588C11.5451 19.1774 11.322 19.5052 10.8191 19.3807C10.8368 19.4066 9.52803 19.0585 9.52803 19.0585L8.64624 21.0917L10.9577 21.668C11.3877 21.7757 11.8092 21.8885 12.224 21.9948L11.4889 24.9463L13.2632 25.389L13.9912 22.4688C14.4759 22.6004 14.9463 22.7218 15.4067 22.8361L14.6812 25.7426L16.4575 26.1853L17.1926 23.2393C20.2215 23.8125 22.4991 23.5813 23.4578 20.8418C24.2303 18.6361 23.4194 17.3636 21.8257 16.534C22.9863 16.2663 23.8605 15.5029 24.0937 13.926C24.416 11.7718 22.7758 10.6138 20.5331 9.84124L21.2606 6.92311L19.4843 6.48044L18.776 9.32164C18.3091 9.20528 17.8295 9.09549 17.3529 8.9867L18.0662 6.12675L16.291 5.68408L15.563 8.60117C15.1764 8.51314 14.7971 8.42609 14.4287 8.33455L14.4307 8.32542L11.9811 7.71378L11.5085 9.61095C11.5085 9.61095 12.8265 9.91299 12.7986 9.9317C13.5181 10.1113 13.6481 10.5873 13.6263 10.9648L11.6331 18.9588ZM20.0353 19.617C19.4864 21.8228 15.7725 20.6303 14.5684 20.3313L15.5438 16.4212C16.7479 16.7216 20.609 17.3166 20.0353 19.617ZM20.5847 13.8941C20.0838 15.9006 16.9927 14.8812 15.99 14.6313L16.8743 11.0848C17.8771 11.3347 21.1063 11.8012 20.5847 13.8941Z" fill="white"/>
</g>
<defs>
<clipPath id="clip0_1_3555">
<rect width="32.3787" height="32.3787" fill="white" transform="translate(0.769043 0.0429688)"/>
</clipPath>
</defs>
</svg>
