<svg width="34" height="33" viewBox="0 0 34 33" fill="none" xmlns="http://www.w3.org/2000/svg">
<path d="M16.959 32.9608C25.9005 32.9608 33.149 25.7123 33.149 16.7708C33.149 7.82932 25.9005 0.580811 16.959 0.580811C8.01755 0.580811 0.769043 7.82932 0.769043 16.7708C0.769043 25.7123 8.01755 32.9608 16.959 32.9608Z" fill="#C4A939"/>
<path d="M19.2255 9.4043H10.4263V12.7459H12.4112V20.7956H10.4263V24.1372H19.2255C22.3696 24.1372 24.9196 20.8393 24.9196 16.7707C24.9196 12.7022 22.3761 9.4043 19.2255 9.4043ZM17.6697 20.7956H16.5315V12.7459H17.6762C19.1948 12.7459 20.4285 14.5462 20.4285 16.7707C20.4285 18.9953 19.1948 20.7956 17.6762 20.7956H17.6697Z" fill="white"/>
</svg>
