<svg width="34" height="34" viewBox="0 0 34 34" fill="none" xmlns="http://www.w3.org/2000/svg">
<g clip-path="url(#clip0_1_3566)">
<path d="M16.959 33.3456C25.9005 33.3456 33.149 26.0971 33.149 17.1556C33.149 8.21409 25.9005 0.965576 16.959 0.965576C8.01755 0.965576 0.769043 8.21409 0.769043 17.1556C0.769043 26.0971 8.01755 33.3456 16.959 33.3456Z" fill="#5F7EDD"/>
<path d="M16.9574 21.5658L11.5176 18.3521L16.9574 26.0196L22.4021 18.3521L16.9574 21.5658Z" fill="white"/>
<path d="M22.3988 17.3207L16.9573 20.536L11.5159 17.3207L16.9573 8.2915L22.3988 17.3207Z" fill="white"/>
<path d="M22.399 17.3207L16.9575 14.8468V8.2915L22.399 17.3207Z" fill="#C1CCF7"/>
<path d="M22.4022 18.3521L16.9575 26.0196V21.5658L22.4022 18.3521Z" fill="#C1CCF7"/>
<path d="M16.9574 14.8469V20.5361L11.5176 17.3208L16.9574 14.8469Z" fill="#C1CCF7"/>
<path d="M22.399 17.3208L16.9575 20.5361V14.8469L22.399 17.3208Z" fill="#8198EE"/>
</g>
<defs>
<clipPath id="clip0_1_3566">
<rect width="32.38" height="32.38" fill="white" transform="translate(0.769043 0.965576)"/>
</clipPath>
</defs>
</svg>
