<svg width="34" height="33" viewBox="0 0 34 33" fill="none" xmlns="http://www.w3.org/2000/svg">
<path d="M16.959 32.8839C25.9005 32.8839 33.149 25.6354 33.149 16.6939C33.149 7.75242 25.9005 0.503906 16.959 0.503906C8.01755 0.503906 0.769043 7.75242 0.769043 16.6939C0.769043 25.6354 8.01755 32.8839 16.959 32.8839Z" fill="#2B53B7"/>
<path d="M23.1615 20.2023V20.2703L22.6402 22.124C22.6091 22.2161 22.5492 22.2956 22.4692 22.3508C22.3893 22.4059 22.2936 22.4337 22.1966 22.43L11.5112 22.9433L13.0638 17.5552L11.0837 18.1704L11.4853 16.9416L13.4621 16.3183L15.6477 8.76082C15.6786 8.66698 15.7382 8.58523 15.8181 8.52712C15.898 8.46901 15.9941 8.43749 16.0929 8.43702L18.7643 8.31721C18.8525 8.30499 18.942 8.32755 19.0139 8.38012C19.0858 8.43268 19.1345 8.51114 19.1496 8.59892V8.70253L17.3298 15.0879L19.3115 14.4646L18.944 15.7598L16.9283 16.3523L15.795 20.2703L22.7713 19.9627C22.8546 19.9453 22.9415 19.9604 23.014 20.0049C23.0865 20.0495 23.1393 20.1201 23.1615 20.2023Z" fill="white"/>
</svg>
