<svg width="34" height="34" viewBox="0 0 34 34" fill="none" xmlns="http://www.w3.org/2000/svg">
<path d="M16.959 2.08374C8.75606 2.08374 2.11816 8.72164 2.11816 16.9246C2.11816 25.1275 8.75606 31.7654 16.959 31.7654C25.1619 31.7654 31.7998 25.1275 31.7998 16.9246C31.7998 8.72164 25.1619 2.08374 16.959 2.08374ZM23.6239 25.0196L19.1042 20.4999C17.9169 19.3126 16.0011 19.3126 14.8138 20.4999L10.2941 25.0196H7.43388L13.3837 19.0697C14.3686 18.0849 15.6638 17.5857 16.959 17.5857C18.2542 17.5857 19.5494 18.0849 20.5343 19.0697L26.4841 25.0196H23.6239ZM20.5343 14.7794C19.5494 15.7643 18.2542 16.2635 16.959 16.2635C15.6638 16.2635 14.3686 15.7643 13.3837 14.7794L7.43388 8.82957H10.2941L14.8138 13.3493C16.0011 14.5365 17.9169 14.5365 19.1042 13.3493L23.6239 8.82957H26.4841L20.5343 14.7794Z" fill="white"/>
</svg>
